<?xml version="1.0" encoding="UTF-8" standalone="no"?>
<!-- Created with Inkscape (http://www.inkscape.org/) -->

<svg
   xmlns:dc="http://purl.org/dc/elements/1.1/"
   xmlns:cc="http://creativecommons.org/ns#"
   xmlns:rdf="http://www.w3.org/1999/02/22-rdf-syntax-ns#"
   xmlns:svg="http://www.w3.org/2000/svg"
   xmlns="http://www.w3.org/2000/svg"
   xmlns:sodipodi="http://sodipodi.sourceforge.net/DTD/sodipodi-0.dtd"
   xmlns:inkscape="http://www.inkscape.org/namespaces/inkscape"
   width="368.84375"
   height="334.5625"
   id="svg2"
   version="1.1"
   inkscape:version="0.48.1 r9760"
   sodipodi:docname="Red Heart.svg"
   inkscape:export-filename="/home/dan/Dropbox/Dokument/Openclipart/Red Heart.png"
   inkscape:export-xdpi="135.65198"
   inkscape:export-ydpi="135.65198">
  <g
     inkscape:label="Layer 1"
     inkscape:groupmode="layer"
     id="layer1"
     transform="translate(-270.21875,-431.15625)">
    <path
       style="fill:none;stroke:#000000;stroke-width:15;stroke-linecap:butt;stroke-miterlimit:4;stroke-opacity:1;stroke-dasharray:none;filter:url(#filter4028)"
       d="m 517.61384,480.67692 c -26.06773,0 -49.12791,12.68088 -63.46875,32.1875 -14.35999,-19.29378 -37.28731,-31.8125 -63.1875,-31.8125 -43.51557,0 -78.78125,35.26568 -78.78125,78.78125 0,10.745 2.13761,20.98024 6.03125,30.3125 l 0.0625,0.0937 c 2.76047,6.59011 6.4245,12.71349 10.78125,18.25 l 124.59375,129.8438 c 41.75685,-41.79895 88.65523,-91.41528 125.875,-130.21875 4.35675,-5.53651 8.02078,-11.65989 10.78125,-18.25 l 0.0625,-0.0937 c 3.89364,-9.33226 6.03125,-19.5675 6.03125,-30.3125 0,-43.51557 -35.26568,-78.78125 -78.78125,-78.78125 z"
       id="path2985-9-1"
       inkscape:connector-curvature="0"
       sodipodi:nodetypes="scsscccccccss" />
    <path
       style="fill:#f20000;fill-opacity:1;stroke:#ffffff;stroke-width:10;stroke-linecap:butt;stroke-miterlimit:4;stroke-opacity:1;stroke-dasharray:none"
       d="m 517.61383,481.03405 c -26.06773,0 -49.12791,12.68088 -63.46875,32.1875 -14.35999,-19.29378 -37.28731,-31.8125 -63.1875,-31.8125 -43.51557,0 -78.78125,35.26568 -78.78125,78.78125 0,10.745 2.13761,20.98024 6.03125,30.3125 l 0.0625,0.0937 c 2.76047,6.59011 6.4245,12.71349 10.78125,18.25 l 124.59375,129.8438 c 41.75685,-41.79895 88.65523,-91.41528 125.875,-130.21875 4.35675,-5.53651 8.02078,-11.65989 10.78125,-18.25 l 0.0625,-0.0937 c 3.89364,-9.33226 6.03125,-19.5675 6.03125,-30.3125 0,-43.51557 -35.26568,-78.78125 -78.78125,-78.78125 z"
       id="path2985-9"
       inkscape:connector-curvature="0"
       sodipodi:nodetypes="scsscccccccss" />
  </g>
</svg>
